<?xml version="1.0" standalone="no"?>
<!DOCTYPE svg PUBLIC "-//W3C//DTD SVG 20010904//EN"
 "http://www.w3.org/TR/2001/REC-SVG-20010904/DTD/svg10.dtd">
<svg version="1.0" xmlns="http://www.w3.org/2000/svg"
 width="468.000000pt" height="76.000000pt" viewBox="0 0 468.000000 76.000000"
 preserveAspectRatio="xMidYMid meet">

<g transform="translate(0.000000,76.000000) scale(0.100000,-0.100000)"
fill="#000000" stroke="none">
<path d="M292 625 c-90 -20 -161 -62 -199 -118 -87 -129 -55 -321 65 -398 79
-50 141 -64 292 -64 170 0 242 21 323 94 28 25 67 90 67 111 0 6 -45 10 -123
10 -119 0 -124 -1 -147 -25 -44 -47 -136 -58 -208 -25 -33 15 -47 29 -62 62
-25 54 -25 82 0 136 15 33 29 47 62 62 72 33 164 22 208 -25 23 -24 28 -25
147 -25 78 0 123 4 123 10 0 38 -62 116 -120 152 -85 51 -298 73 -428 43z"/>
<path d="M930 340 l0 -290 120 0 120 0 0 120 0 120 155 0 155 0 0 -120 0 -120
120 0 120 0 0 290 0 290 -120 0 -119 0 -3 -117 -3 -118 -152 -3 -153 -3 0 121
0 120 -120 0 -120 0 0 -290z"/>
<path d="M2091 538 c-33 -51 -116 -181 -185 -288 l-125 -195 117 -3 c129 -3
125 -5 164 67 l17 31 183 0 183 0 28 -50 28 -50 121 0 120 0 -23 39 c-13 21
-96 151 -184 289 l-160 251 -113 1 -112 0 -59 -92z m223 -160 c25 -44 45 -83
42 -85 -2 -2 -46 -2 -99 -1 l-96 3 47 82 c26 46 50 83 53 83 4 0 28 -37 53
-82z"/>
<path d="M2760 560 l0 -70 115 0 115 0 0 -220 0 -220 120 0 120 0 0 220 0 220
115 0 115 0 0 70 0 70 -350 0 -350 0 0 -70z"/>
<path d="M3570 575 c0 -3 20 -46 45 -96 44 -87 47 -90 77 -87 29 3 34 9 52 61
12 31 23 57 26 57 3 0 16 -27 28 -60 22 -56 26 -60 56 -60 32 0 35 4 71 83 20
45 39 88 42 95 4 8 -6 12 -31 12 -39 0 -39 -1 -78 -100 -9 -24 -11 -22 -36 38
-22 53 -29 62 -51 62 -23 0 -30 -8 -50 -60 -14 -34 -27 -57 -31 -53 -4 4 -15
32 -26 61 -17 50 -19 52 -56 52 -21 0 -38 -2 -38 -5z"/>
<path d="M4000 485 l0 -95 40 0 40 0 0 40 0 40 50 0 50 0 0 -40 0 -40 40 0 40
0 0 95 0 95 -40 0 -40 0 0 -40 0 -40 -50 0 -50 0 0 40 0 40 -40 0 -40 0 0 -95z"/>
<path d="M4300 485 l0 -95 40 0 40 0 0 95 0 95 -40 0 -40 0 0 -95z"/>
<path d="M4410 560 c0 -16 7 -20 35 -20 l35 0 0 -75 0 -75 40 0 40 0 0 75 0
75 40 0 c33 0 40 3 40 20 0 19 -7 20 -115 20 -108 0 -115 -1 -115 -20z"/>
<path d="M3580 165 l0 -95 40 0 40 0 0 63 0 62 36 -62 c31 -55 39 -63 64 -63
26 0 34 8 61 55 17 30 35 58 40 61 5 3 9 -22 9 -55 l0 -61 35 0 35 0 0 95 0
95 -45 0 c-45 0 -46 -1 -87 -65 -23 -36 -44 -65 -48 -65 -3 0 -23 29 -45 65
l-40 65 -47 0 -48 0 0 -95z"/>
<path d="M3980 165 l0 -95 115 0 115 0 0 25 c0 24 -2 25 -75 25 -60 0 -75 3
-75 15 0 12 13 15 60 15 47 0 60 3 60 15 0 12 -13 15 -60 15 -53 0 -60 2 -60
20 0 18 7 20 70 20 63 0 70 2 70 20 0 19 -7 20 -110 20 l-110 0 0 -95z"/>
</g>
</svg>
